<svg width="619" height="650" viewBox="0 0 619 650" fill="none" xmlns="http://www.w3.org/2000/svg">
<g clip-path="url(#clip0_69_13)">
<path d="M0 0H619V650H0V0Z" fill="#FFF9ED"/>
<path d="M619 650H0V422.76H619V650Z" fill="#FAE5D0"/>
<path d="M284.74 133.445H469.945V410.475H284.74V133.445Z" fill="#FAE5D0"/>
<path d="M469.945 -28.925H539.273V410.475H469.945V-28.925Z" fill="#FAE5D0"/>
<path d="M539.273 190.775H619.372V410.475H539.273V190.775Z" fill="#FAE5D0"/>
<path d="M89.136 86.71H284.74V410.475H89.136V86.71Z" fill="#FAE5D0"/>
<path d="M89.136 70.005H110.182V86.71H89.136V70.005Z" fill="#FAE5D0"/>
<path d="M132.775 70.005H153.821V86.71H132.775V70.005Z" fill="#FAE5D0"/>
<path d="M176.415 70.005H197.461V86.71H176.415V70.005Z" fill="#FAE5D0"/>
<path d="M220.054 70.005H241.1V86.71H220.054V70.005Z" fill="#FAE5D0"/>
<path d="M263.694 70.005H284.74V86.71H263.694V70.005Z" fill="#FAE5D0"/>
<path d="M0 143.78H89.136V410.475H0V143.78Z" fill="#FAE5D0"/>
<path d="M7.11841 127.14H28.1644V143.78H7.11841V127.14Z" fill="#FAE5D0"/>
<path d="M50.7581 127.14H71.8041V143.78H50.7581V127.14Z" fill="#FAE5D0"/>
<path d="M316.557 122.135H419.311V143.78H316.557V122.135Z" fill="#FAE5D0"/>
<path d="M414.916 132.145H321.013V112.125H414.916V132.145Z" fill="#FAE5D0"/>
<path d="M409.469 118.755H326.461V102.05H409.469V118.755Z" fill="#FAE5D0"/>
<path d="M367.934 50.7C386.751 50.7 402.041 71.5 402.041 97.24C402.041 122.98 386.751 143.78 367.934 143.78C349.116 143.78 333.889 122.98 333.889 97.24C333.889 71.5 349.116 50.7 367.934 50.7Z" fill="#FAE5D0"/>
<path d="M367.934 38.22C369.419 38.22 370.595 46.8 370.595 57.395C370.595 67.99 369.419 76.635 367.934 76.635C366.51 76.635 365.334 67.99 365.334 57.395C365.334 46.8 366.51 38.22 367.934 38.22Z" fill="#FAE5D0"/>
<path d="M554.995 174.915H657.749V196.56H554.995V174.915Z" fill="#FAE5D0"/>
<path d="M653.293 184.925H559.452V164.905H653.293V184.925Z" fill="#FAE5D0"/>
<path d="M647.845 171.535H564.837V154.895H647.845V171.535Z" fill="#FAE5D0"/>
<path d="M606.372 103.48C625.19 103.48 640.479 124.28 640.479 150.02C640.479 175.76 625.19 196.56 606.372 196.56C587.555 196.56 572.265 175.76 572.265 150.02C572.265 124.28 587.555 103.48 606.372 103.48Z" fill="#FAE5D0"/>
<path d="M606.372 91C607.858 91 609.034 99.645 609.034 110.24C609.034 120.835 607.858 129.415 606.372 129.415C604.887 129.415 603.711 120.835 603.711 110.24C603.711 99.645 604.887 91 606.372 91Z" fill="#FAE5D0"/>
<path d="M0 398.19H619V422.76H0V398.19Z" fill="#F5D2B3"/>
<path d="M0 398.19H37.14V422.76H0V398.19Z" fill="#E6B99A"/>
<path d="M107.025 398.19H196.161V422.76H107.025V398.19Z" fill="#E6B99A"/>
<path d="M265.984 398.19H355.12V422.76H265.984V398.19Z" fill="#E6B99A"/>
<path d="M425.005 398.19H514.141V422.76H425.005V398.19Z" fill="#E6B99A"/>
<path d="M583.965 398.19H619.371V422.76H583.965V398.19Z" fill="#E6B99A"/>
<path d="M322.499 533C466.912 533 583.965 542.165 583.965 553.54C583.965 564.85 466.912 574.08 322.499 574.08C178.086 574.08 61.0334 564.85 61.0334 553.54C61.0334 542.165 178.086 533 322.499 533Z" fill="#F5D2B3"/>
<path d="M176.725 463.06C174.703 462.973 172.701 463.038 170.72 463.255C150.541 465.465 134.447 482.95 133.642 504.855C132.776 527.15 148.065 546.195 168.554 549.64C170.163 549.9 171.793 550.073 173.444 550.16C204.58 552.63 218.755 529.1 219.498 508.43C220.24 489.515 208.417 464.36 176.725 463.06Z" fill="#12172E"/>
<path d="M73.6611 466.115C73.6611 466.115 76.199 484.9 87.8362 487.955C99.4734 491.075 188.981 494.26 188.981 494.26L187.433 455.91L73.6611 466.115Z" fill="#12172E"/>
<path d="M453.975 475.215L182.419 462.995L177.963 493.805C177.963 493.805 396.593 504.205 433.981 501.215C471.431 498.225 453.975 475.215 453.975 475.215Z" fill="#415D82"/>
<path d="M259.733 364.325C259.856 364.325 260.001 364.325 260.166 364.325V364.39C260.166 364.39 213.37 362.83 174.558 359.645C166.511 358.93 159.95 356.655 152.831 350.35C154.069 316.225 157.226 282.165 162.178 248.43C162.735 244.725 163.478 240.695 166.326 238.485C168.368 236.86 171.03 236.6 173.568 236.34C202.537 233.48 231.506 230.62 266.356 237.705C261.032 274.235 257.938 324.025 259.733 364.325Z" fill="#3B1C21"/>
<path d="M273.66 375.7C273.536 369.59 268.956 364.65 263.199 364.52C262.27 364.455 261.28 364.455 260.166 364.325V364.39C260.166 364.39 213.369 362.83 174.558 359.645C166.511 358.93 159.95 356.655 152.831 350.35C151.469 386.49 152.212 422.76 155.06 458.9C192.942 463.06 227.421 465.14 269.76 466.895C272.36 430.43 274.217 403.26 273.66 375.7Z" fill="#E0771B"/>
<path d="M255.585 470.6C255.585 470.6 201.175 492.44 189.786 491.985C181.243 491.595 179.572 444.08 179.263 420.42C179.201 412.555 179.263 407.355 179.263 407.355C179.263 407.355 251.19 407.745 255.709 413.985C255.957 414.332 256.184 414.852 256.39 415.545C259.671 426.335 255.585 470.6 255.585 470.6Z" fill="#A12848"/>
<path d="M256.39 415.545C254.595 414.05 252.057 414.245 249.767 414.18C243.205 413.92 197.399 418.535 179.263 420.42C179.201 412.555 179.263 407.355 179.263 407.355C179.263 407.355 251.19 407.745 255.709 413.985C255.957 414.332 256.184 414.852 256.39 415.545Z" fill="#DE5D66"/>
<path d="M570.409 519.22C569.604 539.89 555.429 563.355 524.293 560.885C522.642 560.798 521.012 560.625 519.403 560.365C498.914 556.985 483.625 537.94 484.491 515.58C485.358 493.675 501.452 476.19 521.631 473.98C523.612 473.763 525.614 473.698 527.636 473.785C559.267 475.15 571.089 500.24 570.409 519.22Z" fill="#212D4A"/>
<path d="M560.133 518.765C559.39 537.55 545.091 558.48 519.403 560.365C498.914 556.985 483.625 537.94 484.491 515.645C485.296 493.675 501.452 476.19 521.631 473.98C548.186 478.53 560.752 501.345 560.133 518.765Z" fill="#2B3B59"/>
<path d="M521.941 485.42C538.592 485.42 552.148 499.655 552.148 517.205C552.148 534.69 538.592 548.925 521.941 548.925C505.228 548.925 491.672 534.69 491.672 517.205C491.672 499.655 505.228 485.42 521.941 485.42Z" fill="#82A1B8"/>
<path d="M519.527 499.655C528.688 499.655 536.116 507.455 536.116 517.075C536.116 526.695 528.688 534.495 519.527 534.495C510.365 534.495 502.938 526.695 502.938 517.075C502.938 507.455 510.365 499.655 519.527 499.655Z" fill="#AECAD6"/>
<path d="M498.295 468.715L513.461 519.48C514.327 522.535 517.67 524.095 520.455 522.795C522.746 521.69 523.984 518.96 523.303 516.36L510.304 468" fill="#131C3B"/>
<path d="M570.347 483.925C554.129 470.73 530.854 471.055 513.027 476.775C510.758 477.512 508.653 478.335 506.713 479.245C493.529 485.42 488.02 495.495 481.396 508.3C473.659 496.795 473.906 475.15 489.134 460.33C501.019 448.695 518.103 442.715 534.073 445.9C534.156 445.943 534.238 445.965 534.321 445.965C535.187 446.16 536.054 446.355 536.921 446.615C549.982 450.125 561.309 460.07 567.004 472.745C568.613 476.32 569.728 480.025 570.347 483.925Z" fill="#FDBF4C"/>
<path d="M534.073 445.9C527.326 447.2 520.95 450.32 516.122 455.065C509.747 461.435 506.404 470.405 506.713 479.245C493.529 485.42 488.02 495.495 481.396 508.3C473.659 496.795 473.906 475.15 489.134 460.33C501.019 448.695 518.103 442.715 534.073 445.9Z" fill="#F7AA45"/>
<path d="M567.004 472.745C563.847 470.08 560.257 467.935 556.481 466.505C546.949 462.8 536.611 462.54 526.521 461.175C524.231 460.915 521.446 460.07 521.012 457.73C520.641 455.91 521.941 454.22 523.241 452.92C526.398 449.8 530.174 447.46 534.321 445.965C535.188 446.16 536.054 446.355 536.921 446.55C549.982 450.125 561.309 460.07 567.004 472.745Z" fill="#FFD363"/>
<path d="M376.662 229.775L383.223 230.035L377.404 384.345L370.843 384.085L376.662 229.775Z" fill="#131C3B"/>
<path d="M370.1 359.515L365.396 482.3L417.639 482.69C417.639 482.69 419.93 397.215 418.815 393.9C418.32 392.47 380.314 391.105 380.314 391.105L380.499 359.71L370.1 359.515Z" fill="#CC6A14"/>
<path d="M301.577 393.64L297.182 376.935L371.09 370.305L374.371 410.865L303.434 415.155L301.577 393.64Z" fill="#E0771B"/>
<path d="M400.926 480.285L340.759 495.56L304.796 493.935L303.434 427.895L301.762 419.705C301.762 419.705 309.376 418.665 319.033 417.43C333.517 415.545 352.582 413.27 357.349 413.465C365.21 413.79 402.04 413.985 402.783 416.975C402.845 417.235 402.907 418.015 402.969 419.185C403.278 430.04 400.926 480.285 400.926 480.285Z" fill="#A12848"/>
<path d="M403.031 425.1L338.345 430.56L326.646 431.405L319.032 417.43C333.517 415.545 352.582 413.27 357.349 413.465C365.21 413.79 402.102 413.985 402.783 416.975C402.907 417.235 402.969 423.93 403.031 425.1Z" fill="#DE5D66"/>
<path d="M389.289 426.595C380.871 427.635 373.133 433.55 369.667 441.675C369.543 439.205 367.995 437.125 366.138 435.63C364.343 434.135 362.239 432.51 360.32 431.08C355.368 427.44 352.211 421.85 352.025 415.48C357.658 419.185 364.467 419.965 371.028 420.81C377.59 421.655 384.523 422.825 389.289 426.595Z" fill="#383C80"/>
<path d="M406.93 353.6C406.93 353.6 425.934 363.935 439.675 368.16L438.437 387.14C438.437 387.14 419.125 383.565 399.44 374.725L406.93 353.6Z" fill="#E1915A"/>
<path d="M376.909 354.575C379.199 348.4 381.551 342.29 385.142 335.01C385.637 335.227 386.153 335.422 386.689 335.595C390.279 336.895 393.56 338.975 396.469 341.575C401.174 345.93 406.25 349.96 411.635 354.055C408.107 361.335 405.012 369.85 401.236 377.845C396.779 376.155 388.299 373.23 380.004 370.175C379.942 364.455 378.828 361.53 376.909 354.575Z" fill="#707DC4"/>
<path d="M408.602 468.455C408.602 468.455 405.259 478.855 406.188 480.48C407.116 482.17 429.648 484.315 430.824 481.91C432 479.505 424.881 474.11 424.324 473.46C423.705 472.81 422.715 470.275 422.715 470.275L408.602 468.455Z" fill="#E1915A"/>
<path d="M405.692 479.245C405.651 480.588 405.61 481.91 405.569 483.21C413.678 485.81 422.343 486.395 430.7 484.77C430.762 483.6 430.824 482.43 430.886 481.26C422.529 482.17 413.987 481.325 405.692 479.245Z" fill="#66253F"/>
<path d="M412.378 482.3C412.811 479.57 414.235 477.035 416.277 475.28C418.32 473.525 420.982 472.615 424.139 472.485C425.253 473.46 426.367 474.5 427.791 475.865C424.943 476.125 422.282 478.01 420.982 480.675C420.548 481.455 420.177 482.43 419.372 482.69C418.939 482.885 418.506 482.82 418.072 482.755C416.092 482.43 414.173 482.17 412.378 482.3Z" fill="#66253F"/>
<path d="M390.775 471.38C390.775 471.38 387.494 481.78 388.422 483.47C389.351 485.095 411.821 487.24 412.997 484.9C414.173 482.495 407.116 477.1 406.497 476.385C405.94 475.735 404.95 473.265 404.95 473.265L390.775 471.38Z" fill="#E1915A"/>
<path d="M387.865 482.235C387.865 483.535 387.845 484.857 387.803 486.2C395.85 488.8 404.578 489.32 412.873 487.76C412.935 486.525 413.059 485.355 413.121 484.25C404.764 485.095 396.222 484.25 387.865 482.235Z" fill="#66253F"/>
<path d="M394.551 485.225C394.984 482.495 396.408 479.96 398.45 478.205C400.555 476.515 403.155 475.605 406.373 475.41C407.488 476.45 408.54 477.425 409.964 478.855C407.178 479.115 404.516 481 403.155 483.6C402.783 484.445 402.412 485.355 401.545 485.68C401.112 485.81 400.679 485.745 400.245 485.68C398.326 485.42 396.346 485.095 394.551 485.225Z" fill="#66253F"/>
<path d="M387.432 393.185C387.432 393.185 421.972 398.775 424.882 403.52C427.791 408.2 422.344 471.51 422.344 471.51L404.826 468.65L398.945 429.325L364.529 400.855" fill="#9D3E52"/>
<path d="M341.378 402.675C341.378 402.675 341.378 418.795 352.459 424.19C362.734 429.195 389.165 433.615 389.165 433.615L388.237 472.94L408.478 476.19C408.478 476.19 418.382 423.28 413.616 415.87C408.849 408.46 371.09 398.84 371.09 398.84L341.378 402.675Z" fill="#9D3E52"/>
<path d="M409.84 468.52C411.759 452.53 413.368 437.19 414.977 419.575C415.225 416.39 414.668 412.685 411.759 411.45C404.454 408.33 397.15 406.315 390.032 404.495" stroke="#66253F" stroke-width="2" stroke-linecap="round"/>
<path d="M395.108 427.895C393.127 427.96 391.146 429.13 390.156 431.015" stroke="#66253F" stroke-width="2" stroke-linecap="round"/>
<path d="M391.146 433.42C393.003 432.38 395.293 432.185 397.274 432.9" stroke="#66253F" stroke-width="2" stroke-linecap="round"/>
<path d="M309.438 361.205L307.086 356.2C307.086 356.2 320.518 346.32 331.722 343.265L337.231 363.48L309.438 361.205Z" fill="#E1915A"/>
<path d="M419.248 400.4C410.582 398.84 410.397 405.145 407.549 406.185C401.607 408.395 387.927 405.08 384.894 423.15C382.789 423.085 380.375 423.02 377.837 422.825C368.367 422.175 356.915 419.9 350.044 413.66C351.406 422.175 361.124 429.39 368.429 436.605C370.657 438.815 372.638 441.025 374.061 443.3C372.514 443.365 370.781 442.52 369.419 441.87C368.552 440.05 367.5 438.49 366.324 437.125C357.844 426.92 342.926 425.685 340.45 405.795C338.717 391.885 341.626 366.015 341.626 366.015L329.06 365.755C333.826 351.715 319.218 348.14 319.218 348.14C340.14 335.595 362.919 332.345 362.919 332.345C371.462 334.295 385.637 330.525 390.155 343.265C391.579 353.145 380.685 385.32 389.97 389.87C394.984 392.34 402.35 394.355 408.478 396.11C413.987 397.735 418.506 399.165 419.248 400.4Z" fill="#707DC4"/>
<path d="M391.517 345.8C390.836 354.51 389.289 363.155 386.937 371.605" stroke="#444594" stroke-width="2" stroke-linecap="round"/>
<path d="M396.284 357.11C394.798 361.79 391.827 365.885 387.927 368.68" stroke="#444594" stroke-width="2" stroke-linecap="round"/>
<path d="M354.934 344.24C356.296 352.625 353.696 361.53 348.063 367.77" stroke="#444594" stroke-width="2" stroke-linecap="round"/>
<path d="M370.595 391.755C377.094 395.33 384.646 396.76 391.889 395.785" stroke="#444594" stroke-width="2" stroke-linecap="round"/>
<path d="M374.061 443.3C372.514 443.365 370.781 442.52 369.419 441.805C368.552 440.05 367.5 438.49 366.324 437.125C367.067 436.995 367.748 436.865 368.429 436.605C370.657 438.815 372.638 441.025 374.061 443.3Z" fill="#E3D2BB"/>
<path d="M419.248 400.4C410.582 398.84 410.397 405.145 407.549 406.185C401.607 408.395 387.927 405.08 384.894 423.15C382.789 423.085 380.375 423.02 377.837 422.825C378.642 419.51 379.261 416.065 380.437 412.815C381.799 408.98 384.027 405.34 387.494 403.455C391.084 401.57 395.355 401.895 399.193 400.66C402.474 399.62 405.321 397.605 408.416 396.175C413.987 397.735 418.506 399.165 419.248 400.4Z" fill="#E3D2BB"/>
<path d="M360.382 335.335C360.382 335.335 366.695 350.155 372.452 350.35C378.147 350.61 382.727 337.415 382.727 337.415L360.382 335.335Z" fill="#D47248"/>
<path d="M356.606 375.765C358.091 364.325 357.968 352.69 356.853 341.315C361.31 344.5 365.396 348.14 369.171 353.21C369.749 367.38 370.327 381.572 370.905 395.785C370.1 393.965 367.81 393.51 366.015 394.03C364.219 394.485 362.672 395.72 361.001 396.565C359.329 397.475 357.287 397.93 355.677 396.955C356.111 390.455 355.553 383.89 356.606 375.765Z" fill="#FDBF4C"/>
<path d="M388.298 334.75C391.455 334.62 394.612 336.83 395.665 339.95C396.531 346.255 394.55 353.08 390.774 358.41C386.937 363.675 381.056 371.02 375.052 368.94C366.386 366.08 362.362 355.745 357.287 349.05C353.944 344.63 351.963 339.495 347.383 336.635C345.092 336.635 343.235 337.285 341.316 337.935C342.74 333.84 347.816 331.955 351.654 333.71C353.015 331.695 355.43 330.525 358.401 331.11C364.591 336.05 367.5 345.41 374.742 348.53C377.528 349.7 380.499 346.32 382.294 343.85C384.089 341.315 384.956 338.065 384.584 334.945C384.956 335.01 385.389 334.945 388.298 334.75Z" fill="#FDBF4C"/>
<path d="M352.582 335.465C356.111 336.96 358.834 340.08 361.063 343.33C363.353 346.58 365.272 350.09 367.934 352.95C370.595 355.81 374.185 358.085 377.961 357.89" stroke="#D17B26" stroke-width="2" stroke-linecap="round" stroke-linejoin="round"/>
<path d="M389.784 336.505C390.837 339.625 390.713 343.07 389.475 346.125C388.237 349.115 385.885 351.585 383.037 352.885" stroke="#D17B26" stroke-width="2" stroke-linecap="round" stroke-linejoin="round"/>
<path d="M358.463 350.48C361.248 355.615 364.777 360.23 368.924 364.195" stroke="#D17B26" stroke-width="2" stroke-linecap="round" stroke-linejoin="round"/>
<path d="M353.944 362.31C347.445 360.49 327.141 358.15 314.019 354.445C310.676 353.47 306.962 355.095 305.476 358.475C304.362 361.14 304.053 364.455 304.61 367.38C305.229 371.02 307.767 374.4 311.233 374.79C323.427 376.35 341.564 375.765 350.168 375.05C351.716 370.63 353.139 366.34 353.944 362.31Z" fill="#E1915A"/>
<path d="M342.493 366.275C344.412 364.975 346.454 363.74 348.621 362.635C350.044 361.855 351.654 361.725 353.139 362.115C354.13 362.375 355.12 362.678 356.111 363.025C356.668 363.22 357.163 363.545 357.658 363.87C360.815 366.535 363.786 369.59 365.643 373.36C367.624 377.39 368.243 382.395 366.51 386.555C366.077 387.465 365.272 388.505 364.343 388.245C363.662 388.05 363.353 387.335 363.105 386.685C362.301 384.475 362.115 382.005 362.672 379.665C364.158 382.395 364.22 385.905 362.982 388.765C362.61 389.48 362.177 390.195 361.558 390.585C360.877 390.975 359.948 391.04 359.391 390.455C358.834 389.87 358.834 388.96 358.896 388.18C359.02 385.45 359.453 382.655 360.072 379.99C361.125 383.37 360.629 387.205 358.71 390.13C358.215 390.845 357.658 391.56 356.853 391.885C356.111 392.21 355.12 392.015 354.625 391.365C354.254 390.845 354.254 390.195 354.254 389.545C354.192 386.49 354.811 383.37 355.925 380.51C356.482 383.695 355.801 387.14 354.006 389.87C353.511 390.65 352.892 391.365 352.025 391.69C351.221 392.015 350.106 391.755 349.735 390.91C349.364 390.195 349.611 389.285 349.859 388.505C350.602 386.62 351.468 384.41 352.211 381.875C348.002 377.65 345.216 372.97 342.493 366.275Z" fill="#E1915A"/>
<path d="M354.625 389.35C355.677 387.075 356.296 384.475 356.296 381.875" stroke="#B54D3E" stroke-width="2" stroke-linecap="round"/>
<path d="M359.082 388.7C360.072 386.1 360.567 383.305 360.567 380.51" stroke="#B54D3E" stroke-width="2" stroke-linecap="round"/>
<path d="M363.415 386.88C364.467 384.215 364.777 381.16 364.343 378.3" stroke="#B54D3E" stroke-width="2" stroke-linecap="round"/>
<path d="M329.37 357.175C326.729 356.568 324.067 356.092 321.385 355.745" stroke="#B54D3E" stroke-width="2" stroke-linecap="round"/>
<path d="M391.703 319.28C392.446 317.265 393.313 315.12 394.86 313.625C396.469 312.13 399.069 311.415 401.05 312.52C402.969 313.625 403.65 316.095 403.526 318.305C403.34 321.425 401.855 324.415 399.564 326.495C397.212 328.64 393.993 329.745 390.775 329.68" fill="#D47248"/>
<path d="M351.035 319.41C341.997 308.035 345.897 272.805 372.823 272.285C395.355 273.715 404.207 297.895 394.922 318.435C401.607 349.505 356.606 351.13 351.035 319.41Z" fill="#E1915A"/>
<path d="M371.4 326.69C371.4 326.69 369.791 334.23 375.857 335.985C381.737 337.675 384.089 328.835 384.089 328.835C384.089 328.835 376.661 324.74 371.4 326.69Z" fill="white"/>
<path d="M367.438 313.17C368.305 313.17 368.986 313.885 368.986 314.795C368.986 315.705 368.305 316.42 367.438 316.42C366.634 316.42 365.891 315.705 365.891 314.795C365.891 313.885 366.634 313.17 367.438 313.17Z" fill="#1C233D"/>
<path d="M385.761 313.365C386.565 313.365 387.308 314.145 387.308 314.99C387.308 315.9 386.565 316.615 385.761 316.615C384.894 316.615 384.213 315.9 384.213 314.99C384.213 314.145 384.894 313.365 385.761 313.365Z" fill="#1C233D"/>
<path d="M377.404 322.725C375.733 320.775 372.824 320.19 370.595 321.23C369.357 321.815 368.367 322.79 367.129 323.375C365.891 323.96 364.219 323.96 363.415 322.855C362.61 324.61 363.167 326.82 364.529 328.185C365.829 329.55 367.686 330.265 369.543 330.525C371.647 330.85 374 330.655 375.795 329.42C377.59 328.12 379.447 325.065 377.404 322.725Z" fill="#54231D"/>
<path d="M378.023 322.725C379.818 320.97 382.728 320.58 384.956 321.815C386.132 322.53 387.061 323.57 388.237 324.285C389.413 324.935 391.084 325.13 391.951 324.025C392.632 325.845 391.889 327.99 390.465 329.29C389.103 330.59 387.184 331.045 385.327 331.175C383.161 331.305 380.871 330.98 379.137 329.55C377.404 328.12 375.795 324.935 378.023 322.725Z" fill="#54231D"/>
<path d="M382.604 316.55C382.913 318.305 383.161 320.32 382.047 321.75C381.304 322.725 380.004 323.18 378.766 323.18C377.528 323.18 376.352 322.79 375.176 322.4C374.557 322.205 373.876 321.945 373.319 321.555C372.7 321.165 372.205 320.645 372.081 319.93C375.795 318.825 379.447 317.525 382.604 316.55Z" fill="#E1915A"/>
<path d="M372.452 320.125C373.752 321.945 376.104 322.725 378.333 322.725C379.323 322.725 380.437 322.595 381.242 321.88C382.356 320.97 382.666 319.41 382.48 317.915C382.356 316.485 381.861 315.12 381.613 313.625C382.418 315.12 383.285 316.68 383.532 318.435C383.78 320.19 383.285 322.205 381.861 323.18C380.809 323.83 379.447 323.895 378.209 323.83C376.847 323.765 375.485 323.57 374.309 322.92C373.071 322.27 372.081 321.1 372.452 320.125Z" fill="#D47248"/>
<path d="M384.77 300.885C385.637 299.195 386.999 297.83 388.608 297.245C390.217 296.66 392.074 296.985 393.436 298.22C394.798 299.455 395.541 301.665 395.108 303.615C392.384 300.43 387.927 299.52 384.77 300.885Z" fill="#54231D"/>
<path d="M371.648 300.82C370.905 298.805 369.481 297.115 367.686 296.335C365.829 295.62 363.662 295.88 362.053 297.18C360.506 298.545 359.577 300.95 360.072 303.095C362.734 299.845 367.191 298.61 371.648 300.82Z" fill="#54231D"/>
<path d="M354.749 286.52C352.768 291.33 354.192 297.635 355.244 301.99C354.811 306.085 353.882 313.69 352.087 320.06C349.673 319.28 350.416 320.125 348.559 318.955C345.03 308.815 341.007 296.725 342.245 286.13C344.164 281.775 348.125 279.565 352.025 278.33C353.201 273.585 356.915 269.815 361.186 267.865C365.457 265.915 370.286 265.59 374.928 265.85C384.275 266.5 393.436 269.75 401.05 275.99C401.359 278.59 401.236 281.255 400.617 283.92C401.669 285.61 402.412 287.495 403.216 290.81C402.164 299 399.998 307.125 396.841 313.56C397.645 308.035 398.822 301.6 398.079 296.205C397.026 288.275 392.384 280.41 386.008 277.225C366.324 267.41 356.234 282.75 354.749 286.52Z" fill="#54231D"/>
<path d="M353.325 318.5C352.458 316.745 351.53 314.925 349.982 313.625C348.373 312.39 345.959 311.805 344.226 312.845C342.493 313.885 342.121 316.095 342.369 318.045C342.74 320.775 344.35 323.375 346.64 325.13C348.93 326.885 351.963 327.795 354.934 327.6" fill="#E1915A"/>
<path d="M303.186 247.195L309.748 247.455L303.867 401.765L297.306 401.505L303.186 247.195Z" fill="#2B3B59"/>
<path d="M296.563 376.935L292.601 497.12C303.001 497.965 332.279 499.59 344.226 498.745C344.226 498.745 346.392 414.635 345.278 411.385C344.783 409.89 306.776 408.525 306.776 408.525L306.962 377.13L296.563 376.935Z" fill="#FDBF4C"/>
<path d="M528.873 405.535C528.688 420.81 528.254 433.095 528.254 433.095C528.254 433.095 504.609 445.64 490.124 467.805C475.639 489.905 473.906 499.98 465.612 503.425C464.188 504.01 459.731 504.465 453.108 504.79C420.858 506.285 336.983 504.855 304.61 503.49C265.551 501.865 173.939 496.21 166.016 494.78C158.092 493.35 157.659 465.075 115.753 461.37C82.265 458.38 69.5136 483.925 67.1614 491.465L54.4719 486.915C54.4719 486.915 54.7814 481.91 56.3289 475.865C55.1528 472.03 53.9767 465.725 53.6672 455.52C53.4196 448.305 54.9671 427.7 57.7526 401.96C58.9906 390.26 60.4762 377.52 62.1475 364.39C116.991 370.695 180.995 371.605 198.823 371.67C198.823 371.67 198.843 371.67 198.885 371.67C201.98 371.67 203.713 371.67 203.713 371.67L203.898 371.475C205.136 371.605 212.688 372.645 215.536 381.225C217.95 388.44 215.845 448.955 214.731 477.23C214.648 478.963 214.587 480.567 214.545 482.04C214.298 488.02 214.112 491.595 214.112 491.595C263.941 497.575 361.991 499.98 422.467 499.33C424.139 491.205 425.624 482.625 426.8 473.72C431.69 438.945 433.486 398.97 433.857 362.895C433.857 361.595 433.857 360.338 433.857 359.125C434.29 302.445 431.257 256.165 431.257 256.165H430.391L431.071 255.45C432.557 252.59 434.538 249.665 436.704 246.935C442.461 239.785 450.075 233.805 457.008 232.895C462.517 235.95 465.735 239.2 468.15 242.45C468.707 243.1 469.14 243.815 469.635 244.465C469.883 244.855 470.13 245.245 470.378 245.635C471.864 247.91 473.102 250.12 474.711 252.2C480.034 258.96 505.29 300.235 519.093 331.175C519.423 331.912 519.733 332.627 520.022 333.32C520.228 333.797 520.414 334.252 520.579 334.685C524.169 343.07 526.831 350.545 527.759 356.135C527.883 356.958 527.986 357.738 528.069 358.475C528.069 358.67 528.069 358.8 528.069 358.93C528.11 359.32 528.151 359.688 528.193 360.035C528.502 364.455 528.688 369.59 528.812 375.05C529.059 384.865 528.997 395.785 528.873 405.535Z" fill="#FDBF4C"/>
<path d="M214.731 477.23C214.649 478.963 214.587 480.567 214.545 482.04C212.606 481.39 210.687 480.762 208.789 480.155C211.636 454.155 212.503 427.895 211.327 401.765C210.955 393.705 210.274 385.255 205.879 378.625C204.022 375.765 201.608 373.49 198.885 371.67C201.98 371.735 203.713 371.735 203.713 371.735L203.899 371.475C205.199 371.605 212.688 372.645 215.598 381.225C217.95 388.44 215.845 448.955 214.731 477.23Z" fill="#FFD363"/>
<path opacity="0.6" d="M528.255 433.095C528.255 433.095 504.609 445.64 490.124 467.74C475.64 489.905 473.906 499.98 465.612 503.425C464.188 504.01 459.731 504.465 453.108 504.79C420.858 506.285 336.984 504.855 304.61 503.49C265.489 501.865 173.939 496.21 166.016 494.78C158.093 493.35 157.659 465.075 115.753 461.37C82.2652 458.38 69.5138 483.925 67.1616 491.465L54.4721 486.915C54.4721 486.915 54.7816 481.91 56.2672 475.865C55.153 472.03 53.9769 465.725 53.6055 455.52C53.3579 448.305 54.9673 427.7 57.7528 401.96C60.0431 404.495 62.6429 406.77 65.4284 408.72C77.8703 417.235 93.0358 419.9 107.706 421.98C122.438 424.125 137.542 426.075 150.665 433.42C166.573 442.26 177.839 458.25 193.252 468.065C200.061 472.355 207.241 475.28 214.731 477.23C214.36 485.94 214.112 491.595 214.112 491.595C263.942 497.575 361.991 499.98 422.468 499.33C424.139 491.205 425.563 482.625 426.801 473.72C438.004 471.575 448.837 468.26 459.36 463.125C493.343 446.42 516.617 412.88 528.812 375.05C529.431 400.4 528.255 433.095 528.255 433.095Z" fill="#F7AA45"/>
<path d="M528.874 405.535C517.979 425.425 502.566 442.585 484.12 454.805C490.805 438.815 497.49 422.803 504.176 406.77C493.343 404.82 485.977 403.065 479.168 399.88C476.878 398.775 474.278 396.565 475.144 394.095C475.702 392.34 477.744 391.755 479.416 391.365C486.596 389.675 493.653 388.05 500.833 386.425C502.442 375.05 502.999 365.43 502.38 355.94C496.19 313.495 475.268 272.48 444.133 243.23C441.595 243.75 439.057 245.115 436.705 246.87C442.461 239.72 450.075 233.805 457.008 232.895C462.517 235.95 465.736 239.2 468.212 242.385C468.707 243.1 469.202 243.75 469.635 244.465C469.883 244.855 470.151 245.245 470.44 245.635C471.864 247.845 473.102 250.055 474.773 252.135C480.035 258.96 505.29 300.235 519.093 331.175C519.424 331.912 519.733 332.627 520.022 333.32C520.228 333.753 520.414 334.187 520.579 334.62C524.231 343.07 526.831 350.545 527.759 356.07C527.883 356.893 527.986 357.695 528.069 358.475C528.069 358.605 528.131 358.8 528.131 358.93C528.131 359.277 528.152 359.645 528.193 360.035C528.502 364.39 528.688 369.59 528.874 375.05C529.059 384.865 528.997 395.785 528.874 405.535Z" fill="#FFD363"/>
<path d="M528.255 433.095C528.255 433.095 504.609 445.64 490.124 467.74C475.64 489.905 473.906 499.98 465.612 503.425C464.188 504.01 459.731 504.465 453.108 504.79C482.263 485.81 522.25 416.52 522.931 360.75C524.417 360.49 526.15 359.84 528.069 358.93C529.988 383.175 528.255 433.095 528.255 433.095Z" fill="#2B3B59"/>
<path d="M528.193 360.035C522.436 362.7 515.627 363.22 509.375 363.415C485.977 364.195 462.269 364.065 438.871 363.09C437.179 363.003 435.508 362.917 433.857 362.83C433.857 361.573 433.857 360.338 433.857 359.125C458.865 360.295 484.244 360.49 509.251 359.71C515.565 359.515 522.436 358.995 527.759 356.07C527.883 356.937 527.986 357.738 528.069 358.475C528.069 358.648 528.069 358.8 528.069 358.93C528.11 359.277 528.151 359.645 528.193 360.035Z" fill="#131C3B"/>
<path d="M504.609 369.33C504.299 369.135 503.866 368.81 503.495 368.42C502.319 367.445 500.895 366.99 499.409 367.12C490.619 367.965 481.211 368.095 472.049 368.095C469.45 368.16 467.221 370.24 467.036 372.97C466.788 375.765 466.85 378.69 467.221 381.42C467.469 383.89 469.388 385.84 471.74 386.1C482.387 387.205 492.724 387.205 503.185 385.06C504.547 384.735 505.723 383.76 506.156 382.33C507.704 378.04 508.818 372.125 504.609 369.33Z" fill="#2B3B59"/>
<path d="M468.459 379.275C468.459 377.78 468.521 376.22 468.583 374.53C468.769 371.54 471.121 369.2 473.968 369.265C483.13 369.395 492.353 369.005 501.761 368.355C504.733 368.16 507.332 370.5 507.456 373.62C507.539 375.137 507.58 376.653 507.58 378.17C507.642 380.965 505.785 383.37 503.185 383.825C494.705 385.32 481.768 385.645 473.349 384.93C470.564 384.67 468.459 382.2 468.459 379.275Z" fill="#E85C20"/>
<path d="M470.378 378.885C470.337 377.802 470.316 376.74 470.316 375.7C470.316 372.71 472.73 370.695 475.578 370.695C479.973 370.825 484.306 370.565 488.639 370.825C486.224 378.69 490.743 381.68 494.767 383.24C488.639 384.02 482.139 384.28 476.073 384.15C473.102 384.085 470.564 382.005 470.378 378.885Z" fill="#CC2E0E"/>
<path d="M501.328 370.11C495.345 370.457 489.381 370.782 483.439 371.085C483.068 371.15 482.696 371.15 482.387 371.345C481.644 371.865 481.892 373.165 482.572 373.75C483.315 374.27 484.306 374.27 485.172 374.27C490.042 374.14 494.911 374.032 499.781 373.945C500.523 373.88 501.328 373.88 502.009 373.555C502.69 373.23 503.309 372.515 503.247 371.735C503.247 370.955 502.38 370.24 501.328 370.11Z" fill="#FFAD7A"/>
<path d="M520.022 333.32C518.66 333.71 517.298 334.078 515.937 334.425C513.089 335.118 510.201 335.725 507.271 336.245C495.2 338.455 482.82 339.17 470.502 338.325C469.635 338.26 468.769 338.195 467.902 338.13H467.84L466.974 338.065C465.117 337.415 463.569 336.57 462.207 335.595C460.041 334.1 458.37 332.215 456.946 330.135C455.708 325.325 454.532 320.515 453.479 315.705C449.704 298.87 447.289 281.84 446.175 264.68C447.042 260.325 448.899 256.75 451.499 253.89C453.046 251.29 455.398 249.47 458.122 248.105C460.474 246.87 463.074 246.025 465.674 245.375C465.798 245.375 465.859 245.375 465.983 245.31C467.18 245.007 468.397 244.725 469.635 244.465C469.883 244.855 470.131 245.267 470.378 245.7C471.121 246.87 471.864 248.04 472.607 249.21C473.288 250.25 473.968 251.225 474.711 252.2C475.248 252.893 475.97 253.912 476.878 255.255C483.192 264.55 497.676 288.47 509.685 311.74C512.346 316.94 514.884 322.14 517.236 327.08C517.855 328.467 518.474 329.832 519.093 331.175C519.424 331.912 519.733 332.627 520.022 333.32Z" fill="#3C5B7D"/>
<path d="M462.207 335.595C460.041 334.1 458.37 332.215 456.946 330.135C455.708 325.325 454.532 320.515 453.479 315.705C456.822 293.605 458.37 271.115 458.122 248.04C460.474 246.87 463.074 246.025 465.674 245.375C465.798 245.375 465.921 245.31 466.045 245.31C466.912 275.47 465.674 305.695 462.207 335.595Z" fill="#6C9DBA"/>
<path d="M470.564 338.325C469.635 338.26 468.769 338.195 467.902 338.13C472.792 308.815 474.34 278.915 472.668 249.21C473.287 250.185 473.968 251.225 474.711 252.2C475.248 252.893 475.97 253.912 476.878 255.255C476.63 283.075 474.463 310.83 470.564 338.325Z" fill="#6C9DBA"/>
<path d="M517.236 327.08C516.824 329.55 516.39 331.977 515.937 334.36C513.089 335.097 510.2 335.725 507.271 336.245C508.88 328.185 509.685 319.93 509.685 311.675C512.346 316.94 514.946 322.14 517.236 327.08Z" fill="#6C9DBA"/>
<path d="M520.579 334.62C503.309 338.715 484.801 340.73 469.945 340.145H469.883C462.393 339.82 455.894 334.295 454.037 326.56C450.137 309.725 446.856 290.68 444.38 269.945C443.266 260.91 447.661 252.005 455.336 247.78C459.484 245.505 463.755 243.75 468.15 242.45C469.016 243.49 469.697 244.595 470.378 245.635C465.798 246.935 461.279 248.755 456.946 251.095C450.632 254.605 446.98 261.95 447.908 269.49C450.384 290.095 453.603 308.945 457.503 325.715C458.927 331.76 464.064 336.18 470.007 336.44H470.069C484.429 336.96 502.318 335.075 519.093 331.175C519.589 332.345 520.146 333.515 520.579 334.62Z" fill="#131C3B"/>
<path d="M457.008 232.895C452.427 233.48 447.661 236.275 443.204 240.11C438.314 244.335 433.919 249.99 431.072 255.45L430.391 256.165L208.541 247.78C208.541 247.867 208.541 247.932 208.541 247.975C208.479 248.365 208.418 248.82 208.356 249.21C199.009 314.73 203.713 371.475 203.713 371.475C203.713 371.475 203.775 371.475 203.899 371.475L203.713 371.735C203.713 371.735 126.648 371.865 62.0859 364.455C68.3378 314.925 76.9419 261.105 84.1842 244.725C84.3699 244.4 84.4937 244.14 84.6175 243.815C84.6794 243.685 84.7413 243.555 84.8032 243.36C86.8459 239.265 89.1362 235.56 91.736 232.05C103.373 216.45 120.21 207.155 137.171 203.515C158.093 199.095 390.342 215.67 428.72 223.535C442.152 226.265 450.942 229.515 457.008 232.895Z" fill="#2B3B59"/>
<path d="M457.008 232.895C452.427 233.48 447.661 236.275 443.204 240.11C439.552 236.6 433.176 235.56 427.853 235.04C346.331 226.33 267.408 223.665 186.381 218.595C165.397 217.295 142.556 217.165 121.943 221.195C111.482 223.21 101.083 226.785 91.7361 232.05C103.373 216.45 120.21 207.155 137.171 203.515C158.093 199.095 390.342 215.67 428.72 223.535C442.152 226.265 450.942 229.515 457.008 232.895Z" fill="#3C5B7D"/>
<path d="M84.8033 243.36C92.2313 242.45 99.9069 242.775 107.521 243.1L109.068 243.165C118.291 243.555 128.381 243.88 138.099 244.205C164.035 245.05 190.776 245.96 208.541 247.975C208.48 248.365 208.418 248.82 208.356 249.21C190.652 247.195 163.973 246.285 138.037 245.44C128.319 245.115 118.291 244.79 109.006 244.4L107.459 244.335C99.6593 244.01 91.7361 243.685 84.1843 244.725" fill="#131C3B"/>
<path d="M160.321 517.985C159.578 538.655 145.403 562.12 114.267 559.65C112.576 559.563 110.945 559.39 109.377 559.13C88.8884 555.75 73.5991 536.705 74.4657 514.345C75.2704 492.44 91.3644 474.955 111.544 472.745C113.525 472.528 115.526 472.463 117.548 472.55C149.241 473.85 161.064 499.005 160.321 517.985Z" fill="#212D4A"/>
<path d="M150.046 517.53C149.365 536.315 135.004 557.245 109.316 559.13C88.8267 555.75 73.5993 536.705 74.404 514.41C75.2706 492.44 91.3646 474.955 111.544 472.745C138.099 477.295 150.727 500.11 150.046 517.53Z" fill="#2B3B59"/>
<path d="M111.854 484.185C128.567 484.185 142.061 498.42 142.061 515.905C142.061 533.455 128.567 547.69 111.854 547.69C95.1406 547.69 81.5845 533.455 81.5845 515.905C81.5845 498.42 95.1406 484.185 111.854 484.185Z" fill="#82A1B8"/>
<path d="M109.501 498.42C118.662 498.42 126.09 506.22 126.09 515.84C126.09 525.46 118.662 533.26 109.501 533.26C100.278 533.26 92.8501 525.46 92.8501 515.84C92.8501 506.22 100.278 498.42 109.501 498.42Z" fill="#AECAD6"/>
<path d="M184.153 500.565C181.181 500.695 178.272 500.76 175.363 500.89C174.166 500.933 172.969 500.955 171.773 500.955C165.273 501.15 159.516 497.25 157.412 491.4C155.555 486.2 153.203 481.13 150.417 476.125C130.795 471.055 110.306 469.17 88.7028 469.755C80.9653 475.605 76.199 482.82 72.1136 491.075C70.5661 494 67.1616 495.625 63.819 495.04C58.0623 494 53.2341 492.895 49.1487 491.79C52.4913 480.675 57.5052 470.015 64.0666 460.07C67.5949 454.675 72.1755 450.125 77.4989 446.615C85.484 441.285 95.2023 438.295 105.292 438.23C118.229 438.165 131.352 439.595 144.351 442.52C157.474 445.38 168.554 453.96 174.187 465.66C179.448 476.45 182.791 488.28 184.153 500.565Z" fill="#FDBF4C"/>
<path d="M184.152 500.565C181.181 500.695 178.272 500.76 175.363 500.89C173.382 486.655 169.977 472.355 160.197 462.735C150.417 453.18 136.428 450.385 123.243 448.11C108.139 445.51 92.1072 443.235 77.4988 446.55C85.4839 441.22 95.2022 438.23 105.292 438.23C118.229 438.165 131.352 439.595 144.351 442.455C157.474 445.38 168.554 453.895 174.187 465.595C179.448 476.45 182.791 488.28 184.152 500.565Z" fill="#FFD363"/>
</g>
<defs>
<clipPath id="clip0_69_13">
<rect width="619" height="650" fill="white"/>
</clipPath>
</defs>
</svg>
